<svg width="216" height="330" viewBox="0 0 216 330" fill="none" xmlns="http://www.w3.org/2000/svg">
<path d="M159.333 117.62H146.292V195.867H15.8805V65.4556H94.1271V52.4145H2.83936V208.908H159.333V117.62Z" fill="white"/>
<path fill-rule="evenodd" clip-rule="evenodd" d="M107.169 52.4145H159.333V104.579H107.169V52.4145ZM120.21 91.5378H146.292V65.4556H120.21V91.5378Z" fill="white"/>
<path d="M120.21 13.2911H198.457V91.5378H172.375V104.579H211.498V0.25H107.169V39.3733H120.21V13.2911Z" fill="white"/>
<path fill-rule="evenodd" clip-rule="evenodd" d="M43.2672 284.586C51.0919 281.688 53.5552 275.457 53.5552 270.531C53.5552 257.634 44.7162 249.52 31.2404 249.52H0.956055V325.013H33.4139C48.4837 325.013 57.6124 314.436 57.6124 301.974C57.6124 295.743 53.2654 287.194 43.2672 284.586ZM17.0399 263.575H29.5014C34.2832 263.575 36.6016 266.763 36.6016 271.4C36.6016 275.892 33.7036 279.225 29.6464 279.225H17.0399V263.575ZM17.0399 310.813H32.5444C37.9057 310.813 40.6588 306.031 40.5139 301.539C40.5139 297.337 37.7608 292.556 32.1097 292.556H17.0399V310.813Z" fill="white"/>
<path fill-rule="evenodd" clip-rule="evenodd" d="M66.5967 287.339C66.5967 265.749 83.4052 248.506 104.851 248.506C126.441 248.506 143.249 265.894 143.249 287.339C143.249 308.64 126.296 326.028 104.851 326.028C83.5501 326.028 66.5967 308.64 66.5967 287.339ZM82.5358 287.339C82.5358 299.946 92.3891 310.089 104.851 310.089C117.312 310.089 127.31 299.946 127.165 287.339C127.165 274.733 117.312 264.445 104.851 264.445C92.2442 264.445 82.5358 274.733 82.5358 287.339Z" fill="white"/>
<path fill-rule="evenodd" clip-rule="evenodd" d="M199.036 284.586C206.86 281.688 209.324 275.457 209.324 270.531C209.324 257.634 200.485 249.52 187.009 249.52H156.725V324.869H189.182C204.252 324.869 213.381 314.291 213.381 301.829C213.236 295.598 209.034 287.049 199.036 284.586ZM172.809 263.575H185.27C190.052 263.575 192.37 266.763 192.37 271.4C192.37 275.892 189.472 279.225 185.415 279.225H172.809V263.575ZM172.664 310.813H188.168C193.674 310.813 196.283 305.886 196.283 301.539C196.283 297.337 193.53 292.556 187.878 292.556H172.664V310.813Z" fill="white"/>
</svg>
