<svg width="170" height="192" viewBox="0 0 170 192" fill="none" xmlns="http://www.w3.org/2000/svg">
<g clip-path="url(#clip0)">
<path d="M2.90383 5.80598C4.50757 5.80598 5.80766 4.50627 5.80766 2.90299C5.80766 1.29971 4.50757 3.06454e-08 2.90383 1.97421e-08C1.30009 8.83885e-09 -8.83629e-09 1.29971 -1.97364e-08 2.90299C-3.06365e-08 4.50627 1.30009 5.80598 2.90383 5.80598Z" fill="#00C5E7"/>
<path d="M35.7359 5.80598C37.3396 5.80598 38.6397 4.50627 38.6397 2.90299C38.6397 1.29971 37.3396 3.06454e-08 35.7359 1.97421e-08C34.1321 8.83887e-09 32.832 1.29971 32.832 2.90299C32.832 4.50627 34.1321 5.80598 35.7359 5.80598Z" fill="#00C5E7"/>
<path d="M68.5847 5.80598C70.1885 5.80598 71.4886 4.50627 71.4886 2.90299C71.4886 1.29971 70.1885 3.06454e-08 68.5847 1.97421e-08C66.981 8.83885e-09 65.6809 1.29971 65.6809 2.90299C65.6809 4.50627 66.981 5.80598 68.5847 5.80598Z" fill="#00C5E7"/>
<path d="M101.432 5.80598C103.036 5.80598 104.336 4.50627 104.336 2.90299C104.336 1.29971 103.036 3.06454e-08 101.432 1.97421e-08C99.8284 8.83884e-09 98.5283 1.29971 98.5283 2.90299C98.5283 4.50627 99.8284 5.80598 101.432 5.80598Z" fill="#00C5E7"/>
<path d="M134.264 5.80598C135.868 5.80598 137.168 4.50627 137.168 2.90299C137.168 1.29971 135.868 3.06453e-08 134.264 1.9742e-08C132.66 8.83879e-09 131.36 1.29971 131.36 2.90299C131.36 4.50627 132.66 5.80598 134.264 5.80598Z" fill="#00C5E7"/>
<path d="M167.113 5.80598C168.717 5.80598 170.017 4.50627 170.017 2.90299C170.017 1.29971 168.717 3.06454e-08 167.113 1.97421e-08C165.509 8.83881e-09 164.209 1.29971 164.209 2.90299C164.209 4.50627 165.509 5.80598 167.113 5.80598Z" fill="#00C5E7"/>
<path d="M2.90383 36.6986C4.50757 36.6986 5.80766 35.3988 5.80766 33.7956C5.80766 32.1923 4.50757 30.8926 2.90383 30.8926C1.30009 30.8926 -8.83628e-09 32.1923 -1.97364e-08 33.7956C-3.06365e-08 35.3988 1.30009 36.6986 2.90383 36.6986Z" fill="#00C5E7"/>
<path d="M35.7359 36.6986C37.3396 36.6986 38.6397 35.3988 38.6397 33.7956C38.6397 32.1923 37.3396 30.8926 35.7359 30.8926C34.1321 30.8926 32.832 32.1923 32.832 33.7956C32.832 35.3988 34.1321 36.6986 35.7359 36.6986Z" fill="#00C5E7"/>
<path d="M68.5847 36.6986C70.1885 36.6986 71.4886 35.3988 71.4886 33.7956C71.4886 32.1923 70.1885 30.8926 68.5847 30.8926C66.981 30.8926 65.6809 32.1923 65.6809 33.7956C65.6809 35.3988 66.981 36.6986 68.5847 36.6986Z" fill="#00C5E7"/>
<path d="M101.432 36.6986C103.036 36.6986 104.336 35.3988 104.336 33.7956C104.336 32.1923 103.036 30.8926 101.432 30.8926C99.8284 30.8926 98.5283 32.1923 98.5283 33.7956C98.5283 35.3988 99.8284 36.6986 101.432 36.6986Z" fill="#00C5E7"/>
<path d="M134.264 36.6986C135.868 36.6986 137.168 35.3988 137.168 33.7956C137.168 32.1923 135.868 30.8926 134.264 30.8926C132.66 30.8926 131.36 32.1923 131.36 33.7956C131.36 35.3988 132.66 36.6986 134.264 36.6986Z" fill="#00C5E7"/>
<path d="M167.113 36.6986C168.717 36.6986 170.017 35.3988 170.017 33.7956C170.017 32.1923 168.717 30.8926 167.113 30.8926C165.509 30.8926 164.209 32.1923 164.209 33.7956C164.209 35.3988 165.509 36.6986 167.113 36.6986Z" fill="#00C5E7"/>
<path d="M2.90383 67.5909C4.50757 67.5909 5.80766 66.2912 5.80766 64.6879C5.80766 63.0846 4.50757 61.7849 2.90383 61.7849C1.30009 61.7849 -8.83628e-09 63.0846 -1.97364e-08 64.6879C-3.06365e-08 66.2912 1.30009 67.5909 2.90383 67.5909Z" fill="#00C5E7"/>
<path d="M35.7359 67.5909C37.3396 67.5909 38.6397 66.2912 38.6397 64.6879C38.6397 63.0846 37.3396 61.7849 35.7359 61.7849C34.1321 61.7849 32.832 63.0846 32.832 64.6879C32.832 66.2912 34.1321 67.5909 35.7359 67.5909Z" fill="#00C5E7"/>
<path d="M68.5847 67.5909C70.1885 67.5909 71.4886 66.2912 71.4886 64.6879C71.4886 63.0846 70.1885 61.7849 68.5847 61.7849C66.981 61.7849 65.6809 63.0846 65.6809 64.6879C65.6809 66.2912 66.981 67.5909 68.5847 67.5909Z" fill="#00C5E7"/>
<path d="M101.432 67.5909C103.036 67.5909 104.336 66.2912 104.336 64.6879C104.336 63.0846 103.036 61.7849 101.432 61.7849C99.8284 61.7849 98.5283 63.0846 98.5283 64.6879C98.5283 66.2912 99.8284 67.5909 101.432 67.5909Z" fill="#00C5E7"/>
<path d="M134.264 67.5909C135.868 67.5909 137.168 66.2912 137.168 64.6879C137.168 63.0846 135.868 61.7849 134.264 61.7849C132.66 61.7849 131.36 63.0846 131.36 64.6879C131.36 66.2912 132.66 67.5909 134.264 67.5909Z" fill="#00C5E7"/>
<path d="M167.113 67.5909C168.717 67.5909 170.017 66.2912 170.017 64.6879C170.017 63.0846 168.717 61.7849 167.113 61.7849C165.509 61.7849 164.209 63.0846 164.209 64.6879C164.209 66.2912 165.509 67.5909 167.113 67.5909Z" fill="#00C5E7"/>
<path d="M2.90383 98.4835C4.50757 98.4835 5.80766 97.1838 5.80766 95.5805C5.80766 93.9772 4.50757 92.6775 2.90383 92.6775C1.30009 92.6775 -8.83629e-09 93.9772 -1.97364e-08 95.5805C-3.06365e-08 97.1838 1.30009 98.4835 2.90383 98.4835Z" fill="#00C5E7"/>
<path d="M35.7359 98.4835C37.3396 98.4835 38.6397 97.1838 38.6397 95.5805C38.6397 93.9772 37.3396 92.6775 35.7359 92.6775C34.1321 92.6775 32.832 93.9772 32.832 95.5805C32.832 97.1838 34.1321 98.4835 35.7359 98.4835Z" fill="#00C5E7"/>
<path d="M68.5847 98.4835C70.1885 98.4835 71.4886 97.1838 71.4886 95.5805C71.4886 93.9772 70.1885 92.6775 68.5847 92.6775C66.981 92.6775 65.6809 93.9772 65.6809 95.5805C65.6809 97.1838 66.981 98.4835 68.5847 98.4835Z" fill="#00C5E7"/>
<path d="M101.432 98.4835C103.036 98.4835 104.336 97.1838 104.336 95.5805C104.336 93.9772 103.036 92.6775 101.432 92.6775C99.8284 92.6775 98.5283 93.9772 98.5283 95.5805C98.5283 97.1838 99.8284 98.4835 101.432 98.4835Z" fill="#00C5E7"/>
<path d="M134.264 98.4835C135.868 98.4835 137.168 97.1838 137.168 95.5805C137.168 93.9772 135.868 92.6775 134.264 92.6775C132.66 92.6775 131.36 93.9772 131.36 95.5805C131.36 97.1838 132.66 98.4835 134.264 98.4835Z" fill="#00C5E7"/>
<path d="M167.113 98.4835C168.717 98.4835 170.017 97.1838 170.017 95.5805C170.017 93.9772 168.717 92.6775 167.113 92.6775C165.509 92.6775 164.209 93.9772 164.209 95.5805C164.209 97.1838 165.509 98.4835 167.113 98.4835Z" fill="#00C5E7"/>
<path d="M2.90383 129.393C4.50757 129.393 5.80766 128.093 5.80766 126.49C5.80766 124.886 4.50757 123.587 2.90383 123.587C1.30009 123.587 -8.83624e-09 124.886 -1.97364e-08 126.49C-3.06365e-08 128.093 1.30009 129.393 2.90383 129.393Z" fill="#00C5E7"/>
<path d="M35.7359 129.393C37.3396 129.393 38.6397 128.093 38.6397 126.49C38.6397 124.886 37.3396 123.587 35.7359 123.587C34.1321 123.587 32.832 124.886 32.832 126.49C32.832 128.093 34.1321 129.393 35.7359 129.393Z" fill="#00C5E7"/>
<path d="M68.5847 129.393C70.1885 129.393 71.4886 128.093 71.4886 126.49C71.4886 124.886 70.1885 123.587 68.5847 123.587C66.981 123.587 65.6809 124.886 65.6809 126.49C65.6809 128.093 66.981 129.393 68.5847 129.393Z" fill="#00C5E7"/>
<path d="M101.432 129.393C103.036 129.393 104.336 128.093 104.336 126.49C104.336 124.886 103.036 123.587 101.432 123.587C99.8284 123.587 98.5283 124.886 98.5283 126.49C98.5283 128.093 99.8284 129.393 101.432 129.393Z" fill="#00C5E7"/>
<path d="M134.264 129.393C135.868 129.393 137.168 128.093 137.168 126.49C137.168 124.886 135.868 123.587 134.264 123.587C132.66 123.587 131.36 124.886 131.36 126.49C131.36 128.093 132.66 129.393 134.264 129.393Z" fill="#00C5E7"/>
<path d="M167.113 129.393C168.717 129.393 170.017 128.093 170.017 126.49C170.017 124.886 168.717 123.587 167.113 123.587C165.509 123.587 164.209 124.886 164.209 126.49C164.209 128.093 165.509 129.393 167.113 129.393Z" fill="#00C5E7"/>
<path d="M2.90383 161.107C4.50757 161.107 5.80766 159.808 5.80766 158.204C5.80766 156.601 4.50757 155.302 2.90383 155.302C1.30009 155.302 -8.83625e-09 156.601 -1.97364e-08 158.204C-3.06365e-08 159.808 1.30009 161.107 2.90383 161.107Z" fill="#00C5E7"/>
<path d="M35.7359 161.107C37.3396 161.107 38.6397 159.808 38.6397 158.204C38.6397 156.601 37.3396 155.302 35.7359 155.302C34.1321 155.302 32.832 156.601 32.832 158.204C32.832 159.808 34.1321 161.107 35.7359 161.107Z" fill="#00C5E7"/>
<path d="M68.5847 161.107C70.1885 161.107 71.4886 159.808 71.4886 158.204C71.4886 156.601 70.1885 155.302 68.5847 155.302C66.981 155.302 65.6809 156.601 65.6809 158.204C65.6809 159.808 66.981 161.107 68.5847 161.107Z" fill="#00C5E7"/>
<path d="M101.432 161.107C103.036 161.107 104.336 159.808 104.336 158.204C104.336 156.601 103.036 155.302 101.432 155.302C99.8284 155.302 98.5283 156.601 98.5283 158.204C98.5283 159.808 99.8284 161.107 101.432 161.107Z" fill="#00C5E7"/>
<path d="M134.264 161.107C135.868 161.107 137.168 159.808 137.168 158.204C137.168 156.601 135.868 155.302 134.264 155.302C132.66 155.302 131.36 156.601 131.36 158.204C131.36 159.808 132.66 161.107 134.264 161.107Z" fill="#00C5E7"/>
<path d="M167.113 161.107C168.717 161.107 170.017 159.808 170.017 158.204C170.017 156.601 168.717 155.302 167.113 155.302C165.509 155.302 164.209 156.601 164.209 158.204C164.209 159.808 165.509 161.107 167.113 161.107Z" fill="#00C5E7"/>
<path d="M2.90383 192C4.50757 192 5.80766 190.7 5.80766 189.097C5.80766 187.494 4.50757 186.194 2.90383 186.194C1.30009 186.194 -8.83632e-09 187.494 -1.97364e-08 189.097C-3.06365e-08 190.7 1.30009 192 2.90383 192Z" fill="#00C5E7"/>
<path d="M35.7359 192C37.3396 192 38.6397 190.7 38.6397 189.097C38.6397 187.494 37.3396 186.194 35.7359 186.194C34.1321 186.194 32.832 187.494 32.832 189.097C32.832 190.7 34.1321 192 35.7359 192Z" fill="#00C5E7"/>
<path d="M68.5847 192C70.1885 192 71.4886 190.7 71.4886 189.097C71.4886 187.494 70.1885 186.194 68.5847 186.194C66.981 186.194 65.6809 187.494 65.6809 189.097C65.6809 190.7 66.981 192 68.5847 192Z" fill="#00C5E7"/>
<path d="M101.432 192C103.036 192 104.336 190.7 104.336 189.097C104.336 187.494 103.036 186.194 101.432 186.194C99.8284 186.194 98.5283 187.494 98.5283 189.097C98.5283 190.7 99.8284 192 101.432 192Z" fill="#00C5E7"/>
<path d="M134.264 192C135.868 192 137.168 190.7 137.168 189.097C137.168 187.494 135.868 186.194 134.264 186.194C132.66 186.194 131.36 187.494 131.36 189.097C131.36 190.7 132.66 192 134.264 192Z" fill="#00C5E7"/>
<path d="M167.113 192C168.717 192 170.017 190.7 170.017 189.097C170.017 187.494 168.717 186.194 167.113 186.194C165.509 186.194 164.209 187.494 164.209 189.097C164.209 190.7 165.509 192 167.113 192Z" fill="#00C5E7"/>
</g>
<defs>
<clipPath id="clip0">
<rect width="170" height="192" fill="white"/>
</clipPath>
</defs>
</svg>
