<svg width="924" height="967" viewBox="0 0 924 967" fill="none" xmlns="http://www.w3.org/2000/svg">
<rect width="923.783" height="966.75" fill="url(#paint0_linear_55_1876)"/>
<path d="M923.5 899.25H907.5C906.948 899.25 906.5 898.802 906.5 898.25V811.75C906.5 811.198 906.052 810.75 905.5 810.75H889.149C889.05 810.75 888.952 810.765 888.858 810.793L850.209 822.535C849.788 822.663 849.5 823.051 849.5 823.491V835.25C849.5 835.802 849.052 836.25 848.5 836.25H833.595C833.228 836.25 832.891 836.451 832.716 836.773L823.621 853.527C823.542 853.673 823.5 853.837 823.5 854.004V898.25C823.5 898.802 823.052 899.25 822.5 899.25H803.5C802.948 899.25 802.5 898.802 802.5 898.25V854.75C802.5 854.198 802.052 853.75 801.5 853.75H792C791.448 853.75 791 853.302 791 852.75V831.25C791 830.698 790.552 830.25 790 830.25H779.5C778.948 830.25 778.5 829.802 778.5 829.25V817.06C778.5 816.858 778.439 816.661 778.325 816.494L766.798 799.684C766.611 799.413 766.303 799.25 765.973 799.25H756C755.448 799.25 755 798.802 755 798.25V775.101C755 774.874 754.923 774.653 754.781 774.476L738.781 754.476C738.19 753.738 737 754.156 737 755.101V798.25C737 798.802 736.552 799.25 736 799.25H727.5C726.948 799.25 726.5 799.698 726.5 800.25V861.75C726.5 862.302 726.052 862.75 725.5 862.75H711C710.448 862.75 710 862.302 710 861.75V854.75C710 854.198 709.552 853.75 709 853.75H686.914C686.649 853.75 686.395 853.855 686.207 854.043L677.793 862.457C677.605 862.645 677.5 862.899 677.5 863.164V898.25C677.5 898.802 677.052 899.25 676.5 899.25H667C666.448 899.25 666 898.802 666 898.25V881.25C666 880.698 665.552 880.25 665 880.25H618C617.448 880.25 617 880.698 617 881.25V886.25C617 886.802 616.552 887.25 616 887.25H606.5C605.948 887.25 605.5 886.802 605.5 886.25V811.75C605.5 811.198 605.052 810.75 604.5 810.75H590.5C589.948 810.75 589.5 810.302 589.5 809.75V800.25C589.5 799.698 589.052 799.25 588.5 799.25H577C576.448 799.25 576 798.802 576 798.25V776.232C576 775.523 575.283 775.039 574.626 775.304L548.126 785.997C547.748 786.15 547.5 786.517 547.5 786.925V798.728C547.5 799.055 547.34 799.361 547.072 799.548L531.428 810.452C531.16 810.639 531 810.945 531 811.272V898.25C531 898.802 530.552 899.25 530 899.25H514.5C513.948 899.25 513.5 898.802 513.5 898.25V863.75C513.5 863.198 513.052 862.75 512.5 862.75H482C481.448 862.75 481 863.198 481 863.75V879.25C481 879.802 480.552 880.25 480 880.25H460.5C459.948 880.25 459.5 879.802 459.5 879.25V842.25C459.5 841.698 459.052 841.25 458.5 841.25H417.5C416.948 841.25 416.5 840.802 416.5 840.25V811.75C416.5 811.198 416.052 810.75 415.5 810.75H404C403.448 810.75 403 810.302 403 809.75V792.25C403 791.698 402.552 791.25 402 791.25H387.5C386.948 791.25 386.5 790.802 386.5 790.25V775.75C386.5 775.198 386.052 774.75 385.5 774.75H348.433C348.157 774.75 347.893 774.864 347.704 775.065L332.771 790.961C332.597 791.147 332.5 791.392 332.5 791.646V815.75C332.5 816.302 332.052 816.75 331.5 816.75H325.5C324.948 816.75 324.5 817.198 324.5 817.75V861.75C324.5 862.302 324.052 862.75 323.5 862.75H298.5C297.948 862.75 297.5 862.302 297.5 861.75V854.75C297.5 854.198 297.052 853.75 296.5 853.75H280C279.448 853.75 279 853.302 279 852.75V842.25C279 841.698 278.552 841.25 278 841.25H269C268.448 841.25 268 841.698 268 842.25V868.75C268 869.302 267.552 869.75 267 869.75H243.777C243.596 869.75 243.418 869.799 243.262 869.893L226.486 879.959C226.184 880.139 226 880.465 226 880.816V898.25C226 898.802 225.552 899.25 225 899.25H208.5C207.948 899.25 207.5 898.802 207.5 898.25V888.25C207.5 887.698 207.052 887.25 206.5 887.25H174C173.448 887.25 173 886.802 173 886.25V800.25C173 799.698 172.552 799.25 172 799.25H155.5C154.948 799.25 154.5 798.802 154.5 798.25V787.25C154.5 786.698 154.052 786.25 153.5 786.25H125.5C124.948 786.25 124.5 786.698 124.5 787.25V809.75C124.5 810.302 124.052 810.75 123.5 810.75H21C20.4477 810.75 20 811.198 20 811.75V898.25C20 898.802 19.5523 899.25 19 899.25H0" stroke="white" stroke-width="2.5"/>
<path d="M513.333 357.62H500.292V435.867H369.88V305.456H448.127V292.414H356.839V448.908H513.333V357.62Z" fill="white"/>
<path fill-rule="evenodd" clip-rule="evenodd" d="M461.169 292.414H513.333V344.579H461.169V292.414ZM474.21 331.538H500.292V305.456H474.21V331.538Z" fill="white"/>
<path d="M474.21 253.291H552.457V331.538H526.375V344.579H565.498V240.25H461.169V279.373H474.21V253.291Z" fill="white"/>
<path fill-rule="evenodd" clip-rule="evenodd" d="M397.267 524.586C405.092 521.688 407.555 515.457 407.555 510.531C407.555 497.634 398.716 489.52 385.24 489.52H354.956V565.013H387.414C402.484 565.013 411.612 554.436 411.612 541.974C411.612 535.743 407.265 527.194 397.267 524.586ZM371.04 503.575H383.501C388.283 503.575 390.602 506.763 390.602 511.4C390.602 515.892 387.704 519.225 383.646 519.225H371.04V503.575ZM371.04 550.813H386.544C391.906 550.813 394.659 546.031 394.514 541.539C394.514 537.337 391.761 532.556 386.11 532.556H371.04V550.813Z" fill="white"/>
<path fill-rule="evenodd" clip-rule="evenodd" d="M420.597 527.339C420.597 505.749 437.405 488.506 458.851 488.506C480.441 488.506 497.249 505.894 497.249 527.339C497.249 548.64 480.296 566.028 458.851 566.028C437.55 566.028 420.597 548.64 420.597 527.339ZM436.536 527.339C436.536 539.946 446.389 550.089 458.851 550.089C471.312 550.089 481.31 539.946 481.165 527.339C481.165 514.733 471.312 504.445 458.851 504.445C446.244 504.445 436.536 514.733 436.536 527.339Z" fill="white"/>
<path fill-rule="evenodd" clip-rule="evenodd" d="M553.036 524.586C560.86 521.688 563.324 515.457 563.324 510.531C563.324 497.634 554.485 489.52 541.009 489.52H510.725V564.869H543.182C558.252 564.869 567.381 554.291 567.381 541.829C567.236 535.598 563.034 527.049 553.036 524.586ZM526.809 503.575H539.27C544.052 503.575 546.37 506.763 546.37 511.4C546.37 515.892 543.472 519.225 539.415 519.225H526.809V503.575ZM526.664 550.813H542.168C547.674 550.813 550.283 545.886 550.283 541.539C550.283 537.337 547.53 532.556 541.878 532.556H526.664V550.813Z" fill="white"/>
<defs>
<linearGradient id="paint0_linear_55_1876" x1="461.892" y1="0" x2="461.892" y2="966.75" gradientUnits="userSpaceOnUse">
<stop stop-color="#AF4FFF"/>
<stop offset="0.847875" stop-color="#67299B"/>
<stop offset="1" stop-color="#582483"/>
</linearGradient>
</defs>
</svg>
