<svg width="924" height="149" viewBox="0 0 924 149" fill="none" xmlns="http://www.w3.org/2000/svg">
<path d="M923.5 147.25H907.5C906.948 147.25 906.5 146.802 906.5 146.25V59.75C906.5 59.1977 906.052 58.75 905.5 58.75H889.149C889.05 58.75 888.952 58.7646 888.858 58.7932L850.209 70.5345C849.788 70.6625 849.5 71.051 849.5 71.4913V83.25C849.5 83.8023 849.052 84.25 848.5 84.25H833.595C833.228 84.25 832.891 84.4507 832.716 84.7729L823.621 101.527C823.542 101.673 823.5 101.837 823.5 102.004V146.25C823.5 146.802 823.052 147.25 822.5 147.25H803.5C802.948 147.25 802.5 146.802 802.5 146.25V102.75C802.5 102.198 802.052 101.75 801.5 101.75H792C791.448 101.75 791 101.302 791 100.75V79.25C791 78.6977 790.552 78.25 790 78.25H779.5C778.948 78.25 778.5 77.8023 778.5 77.25V65.0599C778.5 64.858 778.439 64.6609 778.325 64.4944L766.798 47.6845C766.611 47.4125 766.303 47.25 765.973 47.25H756C755.448 47.25 755 46.8023 755 46.25V23.1008C755 22.8737 754.923 22.6534 754.781 22.4761L738.781 2.47609C738.19 1.73795 737 2.1555 737 3.10078V46.25C737 46.8023 736.552 47.25 736 47.25H727.5C726.948 47.25 726.5 47.6977 726.5 48.25V109.75C726.5 110.302 726.052 110.75 725.5 110.75H711C710.448 110.75 710 110.302 710 109.75V102.75C710 102.198 709.552 101.75 709 101.75H686.914C686.649 101.75 686.395 101.855 686.207 102.043L677.793 110.457C677.605 110.645 677.5 110.899 677.5 111.164V146.25C677.5 146.802 677.052 147.25 676.5 147.25H667C666.448 147.25 666 146.802 666 146.25V129.25C666 128.698 665.552 128.25 665 128.25H618C617.448 128.25 617 128.698 617 129.25V134.25C617 134.802 616.552 135.25 616 135.25H606.5C605.948 135.25 605.5 134.802 605.5 134.25V59.75C605.5 59.1977 605.052 58.75 604.5 58.75H590.5C589.948 58.75 589.5 58.3023 589.5 57.75V48.25C589.5 47.6977 589.052 47.25 588.5 47.25H577C576.448 47.25 576 46.8023 576 46.25V24.2318C576 23.5231 575.283 23.0393 574.626 23.3045L548.126 33.9975C547.748 34.1501 547.5 34.517 547.5 34.9248V46.728C547.5 47.0551 547.34 47.3615 547.072 47.5484L531.428 58.4516C531.16 58.6385 531 58.9449 531 59.272V146.25C531 146.802 530.552 147.25 530 147.25H514.5C513.948 147.25 513.5 146.802 513.5 146.25V111.75C513.5 111.198 513.052 110.75 512.5 110.75H482C481.448 110.75 481 111.198 481 111.75V127.25C481 127.802 480.552 128.25 480 128.25H460.5C459.948 128.25 459.5 127.802 459.5 127.25V90.25C459.5 89.6977 459.052 89.25 458.5 89.25H417.5C416.948 89.25 416.5 88.8023 416.5 88.25V59.75C416.5 59.1977 416.052 58.75 415.5 58.75H404C403.448 58.75 403 58.3023 403 57.75V40.25C403 39.6977 402.552 39.25 402 39.25H387.5C386.948 39.25 386.5 38.8023 386.5 38.25V23.75C386.5 23.1977 386.052 22.75 385.5 22.75H348.433C348.157 22.75 347.893 22.8641 347.704 23.0653L332.771 38.9614C332.597 39.1468 332.5 39.3916 332.5 39.646V63.75C332.5 64.3023 332.052 64.75 331.5 64.75H325.5C324.948 64.75 324.5 65.1977 324.5 65.75V109.75C324.5 110.302 324.052 110.75 323.5 110.75H298.5C297.948 110.75 297.5 110.302 297.5 109.75V102.75C297.5 102.198 297.052 101.75 296.5 101.75H280C279.448 101.75 279 101.302 279 100.75V90.25C279 89.6977 278.552 89.25 278 89.25H269C268.448 89.25 268 89.6977 268 90.25V116.75C268 117.302 267.552 117.75 267 117.75H243.777C243.596 117.75 243.418 117.799 243.262 117.893L226.486 127.959C226.184 128.139 226 128.465 226 128.816V146.25C226 146.802 225.552 147.25 225 147.25H208.5C207.948 147.25 207.5 146.802 207.5 146.25V136.25C207.5 135.698 207.052 135.25 206.5 135.25H174C173.448 135.25 173 134.802 173 134.25V48.25C173 47.6977 172.552 47.25 172 47.25H155.5C154.948 47.25 154.5 46.8023 154.5 46.25V35.25C154.5 34.6977 154.052 34.25 153.5 34.25H125.5C124.948 34.25 124.5 34.6977 124.5 35.25V57.75C124.5 58.3023 124.052 58.75 123.5 58.75H21C20.4477 58.75 20 59.1977 20 59.75V146.25C20 146.802 19.5523 147.25 19 147.25H0" stroke="#582483" stroke-width="2.5"/>
</svg>
