<svg width="300" height="44" viewBox="0 0 300 44" fill="none" xmlns="http://www.w3.org/2000/svg">
<rect width="300" height="44" rx="22" fill="#FF5B24"/>
<path d="M57.4725 16.364H59.9515V26.3355H65.113V28.5H57.4725V16.364ZM70.6286 18.917C73.2926 18.917 75.4201 20.767 75.4201 23.8195C75.4201 26.872 73.2926 28.7405 70.6286 28.7405C67.9831 28.7405 65.8741 26.872 65.8741 23.8195C65.8741 20.767 67.9831 18.917 70.6286 18.917ZM70.6286 20.9335C69.3706 20.9335 68.2976 21.877 68.2976 23.8195C68.2976 25.7805 69.3706 26.724 70.6286 26.724C71.9051 26.724 72.9781 25.7805 72.9781 23.8195C72.9781 21.877 71.9051 20.9335 70.6286 20.9335ZM80.5448 27.8895C78.6763 27.8895 76.6968 26.428 76.6968 23.3015C76.6968 20.3415 78.6578 18.917 80.7483 18.917C81.9508 18.917 82.8203 19.509 83.5418 20.878V19.1575H85.9283V27.1865C85.9283 30.313 84.0968 31.867 81.0628 31.867C79.3238 31.867 77.0853 31.0715 76.6228 28.7035L78.9538 28.315C79.1018 29.4805 80.1008 29.7765 81.1183 29.7765C82.7463 29.7765 83.5418 29.0365 83.5418 27.316V25.984C83.0423 26.946 82.1543 27.8895 80.5448 27.8895ZM81.3033 20.9335C80.1748 20.9335 79.1388 21.766 79.1388 23.4125C79.1388 25.133 80.1193 25.9285 81.3033 25.9285C82.5428 25.9285 83.5418 25.133 83.5418 23.431C83.5418 21.8215 82.5428 20.9335 81.3033 20.9335ZM91.6556 27.8895C89.7871 27.8895 87.8076 26.428 87.8076 23.3015C87.8076 20.3415 89.7686 18.917 91.8591 18.917C93.0616 18.917 93.9311 19.509 94.6526 20.878V19.1575H97.0391V27.1865C97.0391 30.313 95.2076 31.867 92.1736 31.867C90.4346 31.867 88.1961 31.0715 87.7336 28.7035L90.0646 28.315C90.2126 29.4805 91.2116 29.7765 92.2291 29.7765C93.8571 29.7765 94.6526 29.0365 94.6526 27.316V25.984C94.1531 26.946 93.2651 27.8895 91.6556 27.8895ZM92.4141 20.9335C91.2856 20.9335 90.2496 21.766 90.2496 23.4125C90.2496 25.133 91.2301 25.9285 92.4141 25.9285C93.6536 25.9285 94.6526 25.133 94.6526 23.431C94.6526 21.8215 93.6536 20.9335 92.4141 20.9335ZM104.46 19.176H106.846V28.5H104.46V19.176ZM105.662 15.0505C106.458 15.0505 107.05 15.6425 107.05 16.401C107.05 17.178 106.458 17.7515 105.662 17.7515C104.867 17.7515 104.275 17.178 104.275 16.401C104.275 15.6425 104.867 15.0505 105.662 15.0505ZM113.798 21.026C112.54 21.026 111.652 21.7105 111.652 23.209V28.5H109.283V19.176H111.652V20.582C112.318 19.3425 113.631 18.917 114.76 18.917C116.425 18.917 117.997 19.7495 117.997 22.247V28.5H115.611V23.1535C115.611 21.5995 114.815 21.026 113.798 21.026ZM124.836 21.026C123.578 21.026 122.69 21.7105 122.69 23.209V28.5H120.322V19.176H122.69V20.582C123.356 19.3425 124.67 18.917 125.798 18.917C127.463 18.917 129.036 19.7495 129.036 22.247V28.5H126.649V23.1535C126.649 21.5995 125.854 21.026 124.836 21.026ZM146.67 21.026C145.597 21.026 144.801 21.7105 144.801 23.209V28.5H142.433V23.1535C142.433 21.5995 141.675 21.026 140.694 21.026C139.547 21.026 138.715 21.7105 138.715 23.209V28.5H136.347V19.176H138.715V20.582C139.362 19.3425 140.657 18.917 141.767 18.917C142.951 18.917 144.098 19.398 144.579 20.767C145.301 19.3425 146.614 18.917 147.706 18.917C149.371 18.917 150.888 19.7495 150.888 22.247V28.5H148.52V23.1535C148.52 21.5995 147.724 21.026 146.67 21.026ZM157.402 20.9335C156.181 20.9335 155.349 21.581 155.09 22.8945H159.678C159.511 21.507 158.568 20.9335 157.402 20.9335ZM161.916 24.43H155.053C155.238 25.8545 156.052 26.7425 157.532 26.7425C158.956 26.7425 159.474 26.132 159.715 25.2255L161.861 25.54C161.491 27.7415 159.363 28.7405 157.624 28.7405C154.812 28.7405 152.629 26.872 152.629 23.801C152.629 20.804 154.701 18.917 157.458 18.917C160.048 18.917 161.916 20.8965 161.916 23.69V24.43ZM172.672 15.957V28.5H170.304V26.7795C169.823 27.871 168.787 28.7405 167.14 28.7405C165.272 28.7405 163.126 27.1495 163.126 23.7455C163.126 20.4895 165.253 18.917 167.399 18.917C168.62 18.917 169.638 19.5275 170.304 20.952V15.957H172.672ZM167.936 20.9335C166.77 20.9335 165.549 21.877 165.549 23.8565C165.549 25.7805 166.752 26.7055 167.917 26.7055C169.175 26.7055 170.304 25.836 170.304 23.8565C170.304 21.9325 169.175 20.9335 167.936 20.9335Z" fill="white"/>
<path fill-rule="evenodd" clip-rule="evenodd" d="M244 20.3784C243.28 17.6307 241.531 16.54 239.145 16.54C237.211 16.54 234.784 17.6307 234.784 20.2572C234.784 21.9541 235.957 23.2876 237.869 23.6312L239.68 23.9542C240.914 24.1763 241.264 24.6411 241.264 25.2675C241.264 25.9745 240.503 26.3785 239.371 26.3785C237.89 26.3785 236.965 25.8533 236.82 24.3783L234.208 24.7825C234.619 27.6309 237.17 28.803 239.474 28.803C241.655 28.803 243.979 27.5501 243.979 25.025C243.979 23.3076 242.93 22.0554 240.976 21.6912L238.98 21.328C237.869 21.126 237.499 20.5804 237.499 20.0552C237.499 19.3884 238.219 18.9645 239.207 18.9645C240.462 18.9645 241.346 19.3884 241.387 20.7824L244 20.3784ZM185.925 24.7013L188.64 16.8429H191.828L187.097 28.4994H184.731L180 16.8431H183.188L185.925 24.7013ZM202.608 20.1764C202.608 21.1056 201.868 21.7521 201.004 21.7521C200.14 21.7521 199.399 21.1056 199.399 20.1764C199.399 19.247 200.14 18.6008 201.004 18.6008C201.868 18.6008 202.609 19.247 202.609 20.1764H202.608ZM203.102 24.2978C202.032 25.6712 200.901 26.6207 198.905 26.6207C196.869 26.6207 195.285 25.4086 194.051 23.631C193.557 22.9036 192.796 22.7421 192.24 23.1259C191.726 23.4896 191.603 24.2573 192.076 24.9241C193.783 27.4897 196.149 28.9844 198.905 28.9844C201.436 28.9844 203.411 27.7725 204.953 25.7522C205.529 25.0048 205.509 24.2372 204.953 23.8128C204.439 23.4084 203.678 23.5505 203.102 24.2978ZM210.2 22.641C210.2 25.025 211.599 26.2776 213.162 26.2776C214.643 26.2776 216.166 25.1057 216.166 22.641C216.166 20.2165 214.643 19.0451 213.183 19.0451C211.599 19.0451 210.2 20.1561 210.2 22.641ZM210.2 18.4595V16.863H207.3V32.54H210.2V26.9641C211.167 28.2572 212.422 28.803 213.841 28.803C216.495 28.803 219.087 26.7422 219.087 22.4998C219.087 18.4389 216.392 16.5403 214.088 16.5403C212.257 16.5403 211.002 17.3683 210.2 18.4595ZM224.128 22.641C224.128 25.025 225.526 26.2776 227.09 26.2776C228.571 26.2776 230.093 25.1057 230.093 22.641C230.093 20.2165 228.571 19.0451 227.11 19.0451C225.526 19.0451 224.127 20.1561 224.127 22.641H224.128ZM224.128 18.4595V16.863H224.127H221.227V32.54H224.127V26.9641C225.094 28.2572 226.349 28.803 227.768 28.803C230.422 28.803 233.014 26.7422 233.014 22.4998C233.014 18.4389 230.319 16.5403 228.015 16.5403C226.184 16.5403 224.93 17.3683 224.128 18.4595Z" fill="white"/>
</svg>
